<?xml version="1.0" encoding="UTF-8"?>
<svg version="1.1" xmlns="http://www.w3.org/2000/svg" width="512" height="512">
<path d="M0 0 C0.83802824 -0.00465992 1.67605649 -0.00931984 2.53947952 -0.01412097 C5.36034008 -0.02611492 8.1807229 -0.01665859 11.00158787 -0.00736332 C13.03928136 -0.01153431 15.07697253 -0.01701052 17.11465937 -0.02368313 C22.72420242 -0.03818726 28.33359917 -0.03387752 33.9431504 -0.02651632 C39.98891938 -0.02179923 46.03465604 -0.03428153 52.08041477 -0.04453373 C63.24309685 -0.06075957 74.4057334 -0.06316111 85.56842104 -0.05822874 C95.88068872 -0.0536743 106.19293899 -0.05426732 116.50520611 -0.06006908 C117.8876492 -0.06082594 119.2700923 -0.06158192 120.6525354 -0.06233703 C122.73566659 -0.0634822 124.81879777 -0.06463208 126.90192895 -0.06579627 C146.27299701 -0.07650379 165.64405925 -0.08122393 185.01512909 -0.07332611 C185.74558067 -0.07302894 186.47603225 -0.07273176 187.22861872 -0.07242559 C193.1606752 -0.06997657 199.0927316 -0.06736502 205.024788 -0.06474145 C228.1662165 -0.05463812 251.30757244 -0.06299502 274.44899082 -0.086236 C300.44036409 -0.11229687 326.43169368 -0.1251597 352.4230805 -0.11804825 C355.19340614 -0.11733217 357.96373178 -0.11665779 360.73405743 -0.1160078 C361.41619672 -0.115838 362.09833602 -0.11566819 362.80114621 -0.11549323 C373.10684724 -0.11318841 383.41250778 -0.12117595 393.71819973 -0.13429928 C405.43581623 -0.14919382 417.15335397 -0.14970079 428.87097424 -0.13222837 C434.85242798 -0.12368835 440.83370005 -0.1216419 446.81514454 -0.13687992 C452.28707906 -0.15064768 457.75867492 -0.14606624 463.23058946 -0.12664068 C465.21370893 -0.12285596 467.19685502 -0.12587314 469.17995095 -0.13625234 C471.86945888 -0.14933155 474.55778215 -0.13792031 477.24723816 -0.12025452 C478.02259349 -0.12990503 478.79794882 -0.13955554 479.59679976 -0.14949849 C484.77779529 -0.07931299 487.75824532 1.01146933 491.68653965 4.38031673 C494.99045914 8.41322312 495.11325401 12.20122975 495.06685638 17.22525597 C495.0715163 18.012633 495.07617622 18.80001003 495.08097735 19.61124697 C495.09296486 22.25981589 495.08351754 24.90787538 495.0742197 27.55644894 C495.07839098 29.47039861 495.08386735 31.38434581 495.09053952 33.2982884 C495.10503991 38.56578725 495.10073507 43.83313025 495.0933727 49.10063779 C495.08865469 54.77830609 495.10113873 60.45594 495.11139011 66.13359737 C495.12861019 77.25961589 495.12941149 88.385578 495.12417721 99.51160639 C495.12014032 108.55225109 495.12157333 117.59287909 495.12692547 126.63352299 C495.12767389 127.91888082 495.12842231 129.20423864 495.12919341 130.52854671 C495.13072485 133.13951266 495.13226319 135.7504786 495.13380838 138.36144454 C495.1436413 155.89908712 495.1477965 173.43671968 495.1401825 190.97436333 C495.13973674 192.00331198 495.13973674 192.00331198 495.13928197 193.05304748 C495.13683296 198.6237942 495.13422141 204.19454085 495.13159784 209.76528749 C495.12149461 231.49693791 495.12985134 253.22851107 495.15309238 274.96015072 C495.1791547 299.3693963 495.19196618 323.77858427 495.18490463 348.18784624 C495.18140681 361.11454006 495.1836816 374.04117041 495.20115566 386.9678545 C495.21584576 397.97182564 495.21655492 408.97568864 495.19908475 419.97965758 C495.19054614 425.59656748 495.18849485 431.21328394 495.20373631 436.83018398 C495.21750828 441.9690501 495.21291719 447.10755568 495.19349707 452.24640054 C495.18971365 454.1083902 495.19272587 455.97040822 495.20310872 457.83237278 C495.2161969 460.35853215 495.20476914 462.88343205 495.1871109 465.40953636 C495.19676141 466.13676133 495.20641192 466.86398629 495.21635488 467.61324838 C495.14362891 472.66127658 493.93923846 475.54570627 490.68653965 479.38031673 C486.55769054 482.80724476 482.52819968 482.80529537 477.3730793 482.76063347 C476.53505106 482.76529339 475.69702281 482.76995331 474.83359978 482.77475443 C472.01273922 482.78674839 469.1923564 482.77729206 466.37149143 482.76799679 C464.33379794 482.77216777 462.29610677 482.77764399 460.25841993 482.7843166 C454.64887688 482.79882073 449.03948013 482.79451099 443.4299289 482.78714979 C437.38415992 482.78243269 431.33842326 482.794915 425.29266453 482.8051672 C414.12998245 482.82139304 402.9673459 482.82379458 391.80465826 482.81886221 C381.49239058 482.81430777 371.18014031 482.81490079 360.86787319 482.82070255 C359.4854301 482.82145941 358.102987 482.82221539 356.7205439 482.8229705 C354.63741271 482.82411567 352.55428153 482.82526555 350.47115035 482.82642974 C331.10008229 482.83713725 311.72902005 482.8418574 292.35795021 482.83395958 C291.62749863 482.83366241 290.89704705 482.83336523 290.14446058 482.83305905 C284.2124041 482.83061003 278.2803477 482.82799849 272.3482913 482.82537492 C249.2068628 482.81527159 226.06550686 482.82362849 202.92408848 482.84686947 C176.93271521 482.87293034 150.94138562 482.88579317 124.9499988 482.87868172 C122.17967316 482.87796564 119.40934752 482.87729126 116.63902187 482.87664127 C115.95688258 482.87647146 115.27474328 482.87630166 114.57193309 482.8761267 C104.26623206 482.87382188 93.96057152 482.88180942 83.65487957 482.89493275 C71.93726307 482.90982729 60.21972532 482.91033426 48.50210506 482.89286184 C42.52065132 482.88432182 36.53937925 482.88227537 30.55793476 482.89751339 C25.08600024 482.91128115 19.61440438 482.90669971 14.14248984 482.88727415 C12.15937037 482.88348943 10.17622428 482.88650661 8.19312835 482.8968858 C5.50362042 482.90996501 2.81529715 482.89855378 0.12584114 482.88088799 C-0.64951419 482.8905385 -1.42486952 482.90018901 -2.22372046 482.91013196 C-7.40471599 482.83994646 -10.38516602 481.74916414 -14.31346035 478.38031673 C-17.61737984 474.34741035 -17.74017471 470.55940371 -17.69377708 465.5353775 C-17.698437 464.74800047 -17.70309692 463.96062344 -17.70789805 463.1493865 C-17.71988556 460.50081758 -17.71043824 457.85275809 -17.7011404 455.20418453 C-17.70531168 453.29023486 -17.71078805 451.37628765 -17.71746022 449.46234506 C-17.73196061 444.19484622 -17.72765577 438.92750322 -17.7202934 433.65999568 C-17.71557539 427.98232738 -17.72805943 422.30469347 -17.73831081 416.62703609 C-17.75553089 405.50101758 -17.75633219 394.37505546 -17.75109791 383.24902708 C-17.74706102 374.20838238 -17.74849403 365.16775438 -17.75384617 356.12711048 C-17.75459459 354.84175265 -17.75534301 353.55639482 -17.75611411 352.23208676 C-17.75764555 349.62112081 -17.75918389 347.01015487 -17.76072908 344.39918893 C-17.770562 326.86154635 -17.7747172 309.32391379 -17.7671032 291.78627014 C-17.76680602 291.10030437 -17.76650885 290.4143386 -17.76620267 289.70758599 C-17.76375366 284.13683927 -17.76114211 278.56609262 -17.75851854 272.99534598 C-17.74841531 251.26369556 -17.75677204 229.5321224 -17.78001308 207.80048275 C-17.8060754 183.39123717 -17.81888688 158.98204919 -17.81182534 134.57278723 C-17.80832751 121.64609341 -17.8106023 108.71946306 -17.82807636 95.79277897 C-17.84276646 84.78880783 -17.84347562 73.78494483 -17.82600545 62.78097589 C-17.81746684 57.16406598 -17.81541555 51.54734952 -17.83065701 45.93044949 C-17.84442898 40.79158337 -17.83983789 35.65307778 -17.82041777 30.51423293 C-17.81663435 28.65224327 -17.81964657 26.79022524 -17.83002942 24.92826069 C-17.8431176 22.40210132 -17.83168984 19.87720142 -17.8140316 17.35109711 C-17.82368211 16.62387214 -17.83333263 15.89664718 -17.84327558 15.14738509 C-17.77054961 10.09935689 -16.56615916 7.2149272 -13.31346035 3.38031673 C-9.18461124 -0.04661129 -5.15512038 -0.0446619 0 0 Z " fill="#D7D7D7" transform="translate(17.31346035003662,14.619683265686035)"/>
<path d="M0 0 C1.0104689 -0.00256805 2.02093781 -0.00513611 3.06202698 -0.00778198 C6.46254792 -0.01275217 9.86262678 0.00383014 13.2631073 0.02018738 C15.73675618 0.02110624 18.21040585 0.02070616 20.68405437 0.01909161 C26.64291756 0.01848238 32.6016093 0.03134385 38.56042958 0.05059559 C45.45356198 0.07219904 52.34662642 0.07458002 59.23979187 0.07695007 C77.43793349 0.0926999 95.63604489 0.13458326 113.83415222 0.17326355 C174.81196472 0.26607605 174.81196472 0.26607605 237.02165222 0.36076355 C237.02165222 106.62076355 237.02165222 212.88076355 237.02165222 322.36076355 C219.86165222 322.69076355 202.70165222 323.02076355 185.02165222 323.36076355 C177.89386374 327.04838572 177.89386374 327.04838572 175.02165222 333.36076355 C174.42945695 338.78922022 175.2607078 342.64043922 178.02165222 347.36076355 C184.12339936 351.97616768 189.60489298 351.96179892 197.08024597 351.97013855 C198.22453568 351.9866748 199.36882538 352.00321106 200.54779053 352.02024841 C204.18496618 352.06864241 207.82172392 352.09008131 211.45915222 352.11076355 C213.93248044 352.13893026 216.40578926 352.16885866 218.8790741 352.2006073 C224.92679082 352.27769997 230.97319747 352.31830335 237.02165222 352.36076355 C237.02165222 362.26076355 237.02165222 372.16076355 237.02165222 382.36076355 C233.56842751 382.36623199 233.56842751 382.36623199 230.04544067 382.37181091 C208.3706516 382.40802767 186.69600118 382.46621174 165.0213232 382.54466629 C153.87763159 382.58447347 142.73401078 382.61685747 131.59025574 382.63175964 C121.87721219 382.64476742 112.16432429 382.67170982 102.45136839 382.71537662 C97.30853575 382.73801099 92.16589522 382.75367304 87.02300835 382.7526474 C82.18105158 382.75190196 77.33951984 382.76980614 72.49767303 382.80193138 C70.72198233 382.81044082 68.94624401 382.81217322 67.17054176 382.80656624 C64.74211564 382.79992038 62.31503951 382.81785949 59.88674927 382.84178162 C59.18731372 382.8340212 58.48787818 382.82626078 57.76724762 382.8182652 C52.38730904 382.911811 49.35819121 384.39076073 45.02165222 387.36076355 C42.02753191 391.70706723 41.4725557 395.14434659 42.02165222 400.36076355 C43.32453322 404.88252703 44.25896423 406.830799 48.15117741 409.53535843 C51.99518437 411.59654423 55.57808536 411.92755122 59.88674927 411.87974548 C61.02890651 411.89099736 61.02890651 411.89099736 62.19413763 411.90247655 C64.72929089 411.92267315 67.26354289 411.9146672 69.79875183 411.90666199 C71.62243022 411.91540139 73.44610094 411.92588846 75.26976013 411.93798828 C80.20933187 411.96582387 85.1486531 411.9692535 90.08829188 411.96826839 C95.25465793 411.97139958 100.4209115 411.9970221 105.58721924 412.02024841 C115.36533321 412.06079612 125.1433805 412.08114626 134.92156559 412.09422231 C146.05579595 412.11009649 157.18991292 412.14851392 168.32407749 412.18881559 C191.22325347 412.27119782 214.1223574 412.32232468 237.02165222 412.36076355 C237.02165222 435.46076355 237.02165222 458.56076355 237.02165222 482.36076355 C205.6574312 482.4489396 174.29332972 482.52279839 142.92902344 482.56502487 C139.22650104 482.57002772 135.52397891 482.575205 131.82145691 482.58049011 C130.71579493 482.58206397 130.71579493 482.58206397 129.58779635 482.58366963 C117.65136773 482.60107666 105.71501614 482.63261596 93.77863322 482.66937473 C81.53153466 482.70677592 69.28447645 482.72899765 57.03732312 482.73711753 C49.47964621 482.74260703 41.92218702 482.75994732 34.36457713 482.79242942 C28.57016936 482.81606536 22.77590121 482.81858546 16.98145485 482.81319427 C14.60382686 482.81429631 12.22619077 482.82227392 9.84861183 482.83758545 C6.60552109 482.85744947 3.36336634 482.85271511 0.12025452 482.84178162 C-0.82333266 482.85343298 -1.76691984 482.86508435 -2.73910058 482.87708879 C-8.29644267 482.82635227 -11.66391487 482.2129228 -15.97834778 478.36076355 C-19.13853002 474.20318862 -19.40534184 470.5701379 -19.35866451 465.51582432 C-19.36332443 464.72844729 -19.36798435 463.94107025 -19.37278548 463.12983331 C-19.38477299 460.48126439 -19.37532567 457.8332049 -19.36602783 455.18463135 C-19.3701991 453.27068167 -19.37567548 451.35673447 -19.38234764 449.44279188 C-19.39684804 444.17529303 -19.3925432 438.90795004 -19.38518083 433.64044249 C-19.38046282 427.9627742 -19.39294686 422.28514029 -19.40319824 416.60748291 C-19.42041832 405.4814644 -19.42121962 394.35550228 -19.41598534 383.2294739 C-19.41194845 374.18882919 -19.41338146 365.1482012 -19.4187336 356.1075573 C-19.41948202 354.82219947 -19.42023044 353.53684164 -19.42100154 352.21253357 C-19.42253297 349.60156763 -19.42407132 346.99060168 -19.42561651 344.37963574 C-19.43544942 326.84199316 -19.43960463 309.3043606 -19.43199062 291.76671696 C-19.43169345 291.08075119 -19.43139628 290.39478542 -19.4310901 289.68803281 C-19.42864109 284.11728608 -19.42602954 278.54653944 -19.42340596 272.9757928 C-19.41330274 251.24414238 -19.42165947 229.51256921 -19.44490051 207.78092957 C-19.47096283 183.37168398 -19.48377431 158.96249601 -19.47671276 134.55323404 C-19.47321494 121.62654023 -19.47548973 108.69990987 -19.49296379 95.77322578 C-19.50765389 84.76925465 -19.50836305 73.76539165 -19.49089288 62.7614227 C-19.48235427 57.1445128 -19.48030297 51.52779634 -19.49554443 45.9108963 C-19.50931641 40.77203019 -19.50472532 35.6335246 -19.4853052 30.49467974 C-19.48152177 28.63269008 -19.484534 26.77067206 -19.49491685 24.90870751 C-19.50800503 22.38254813 -19.49657727 19.85764823 -19.47891903 17.33154392 C-19.48856954 16.60431896 -19.49822005 15.87709399 -19.50816301 15.12783191 C-19.43557703 10.08952105 -18.10913969 7.26023567 -14.97834778 3.36076355 C-10.49698095 -0.54334699 -5.64364519 -0.0521165 0 0 Z " fill="#F0F0F1" transform="translate(18.978347778320313,14.639236450195313)"/>
<path d="M0 0 C1.33779663 -0.00542698 2.67558727 -0.01255287 4.0133667 -0.02124023 C7.63129282 -0.03941031 11.24876051 -0.03243213 14.86669421 -0.01972389 C18.66261151 -0.00956113 22.45849087 -0.01899883 26.25440979 -0.02526855 C32.62882495 -0.03253636 39.00305446 -0.02298109 45.37744141 -0.00390625 C52.73309391 0.01785163 60.08830268 0.01081577 67.44394439 -0.01121187 C73.77285907 -0.02940189 80.10164066 -0.03190639 86.43057305 -0.0214572 C90.20458209 -0.01524077 93.97838303 -0.01433508 97.75237846 -0.02760315 C101.30256136 -0.03921345 104.85217604 -0.03104279 108.40229797 -0.00802612 C110.31629163 -0.00026958 112.23033371 -0.01205135 114.14430237 -0.02453613 C120.7295606 0.03984994 126.48267682 0.21250374 131.75610352 4.51757812 C136.89504975 10.60325095 136.32373608 17.07541061 136.27368164 24.76147461 C136.27910862 26.09927124 136.28623451 27.43706188 136.29492188 28.77484131 C136.31309195 32.39276743 136.30611377 36.01023512 136.29340553 39.62816882 C136.28324277 43.42408611 136.29268047 47.21996548 136.2989502 51.0158844 C136.306218 57.39029956 136.29666273 63.76452907 136.27758789 70.13891602 C136.25583001 77.49456851 136.26286587 84.84977729 136.28489351 92.205419 C136.30308354 98.53433368 136.30558803 104.86311527 136.29513884 111.19204766 C136.28892241 114.9660567 136.28801672 118.73985764 136.30128479 122.51385307 C136.31289509 126.06403597 136.30472443 129.61365065 136.28170776 133.16377258 C136.27395122 135.07776624 136.28573299 136.99180832 136.29821777 138.90577698 C136.23455721 145.41683183 136.16795178 151.37688871 131.75610352 156.51757812 C125.68825441 161.72513442 117.94425385 161.0844794 110.3828125 161.03515625 C109.04324587 161.0405849 107.70368522 161.04771172 106.36413574 161.05639648 C102.74633569 161.07454314 99.12899481 161.06759911 95.51118731 161.05488014 C91.71480805 161.04470933 87.91846648 161.0541569 84.12208557 161.0604248 C77.74945053 161.06768851 71.37700132 161.05814629 65.00439453 161.0390625 C57.64813337 161.01728671 50.2923156 161.02435513 42.93606514 161.04636812 C36.60629667 161.06454754 30.2766613 161.06706837 23.94687515 161.05661345 C20.17235396 161.05039361 16.39804088 161.04950118 12.62353325 161.0627594 C9.07498136 161.07435488 5.5269987 161.06622582 1.978508 161.04318237 C0.06313855 161.03541238 -1.85227931 161.04721896 -3.7676239 161.05969238 C-10.41184269 160.99457065 -15.06533119 160.89053234 -20.24389648 156.51757812 C-25.33748819 150.27827073 -24.81151838 142.81620239 -24.76147461 135.14428711 C-24.76690326 133.80472048 -24.77403008 132.46515983 -24.78271484 131.12561035 C-24.8008615 127.5078103 -24.79391747 123.89046942 -24.7811985 120.27266192 C-24.77102769 116.47628266 -24.78047526 112.67994109 -24.78674316 108.88356018 C-24.79400687 102.51092514 -24.78446465 96.13847593 -24.76538086 89.76586914 C-24.74360507 82.40960798 -24.75067349 75.05379021 -24.77268648 67.69753975 C-24.7908659 61.36777128 -24.79338672 55.03813591 -24.7829318 48.70834976 C-24.77671197 44.93382857 -24.77581954 41.15951549 -24.78907776 37.38500786 C-24.80067324 33.83645596 -24.79254418 30.28847331 -24.76950073 26.7399826 C-24.76173074 24.82461316 -24.77353732 22.9091953 -24.78601074 20.99385071 C-24.72070846 14.33121096 -24.55463283 9.75511841 -20.24389648 4.51757812 C-14.07626127 -0.55866909 -7.72679345 -0.05031968 0 0 Z " fill="#FEDE59" transform="translate(84.243896484375,146.482421875)"/>
<path d="M0 0 C0.83323325 -0.00256327 1.66646651 -0.00512655 2.52494925 -0.0077675 C5.31498178 -0.01270613 8.10447234 0.00378881 10.89445496 0.02018738 C12.8951669 0.02103363 14.89587978 0.02055854 16.89659119 0.01885986 C22.32802157 0.01799843 27.75925358 0.03564835 33.19063783 0.05658174 C38.86677691 0.07532371 44.54292044 0.07709702 50.21908569 0.08065796 C60.96770916 0.0899857 71.71624119 0.11460941 82.46482438 0.14470643 C94.70169585 0.1782277 106.93857167 0.19473074 119.17547762 0.20979273 C144.34772325 0.24115828 169.51988769 0.29393301 194.69206238 0.36076355 C194.71072978 2.58859597 194.72400696 4.81647395 194.73503113 7.0443573 C194.7430072 8.28499939 194.75098328 9.52564148 194.75920105 10.80387878 C194.4213719 28.70145312 185.14474957 45.03301971 172.69206238 57.36076355 C160.15572144 69.00500532 143.18512895 75.49529252 126.15570068 75.48101807 C124.88395493 75.48239273 123.61220917 75.4837674 122.30192566 75.48518372 C120.910568 75.48164551 119.51921058 75.47801071 118.12785339 75.47428894 C116.64900718 75.47400658 115.17016083 75.47416575 113.6913147 75.47473145 C109.69184439 75.47501753 105.69240427 75.46915135 101.69294095 75.46215749 C97.50758598 75.45589248 93.32223027 75.45531766 89.13687134 75.45413208 C81.21808752 75.45102803 73.29931756 75.44282715 65.38053983 75.43278259 C56.36241314 75.42159266 47.34428578 75.41610375 38.32615387 75.41108716 C19.78144886 75.40064375 1.23675674 75.38306228 -17.30793762 75.36076355 C-17.40076212 66.85911283 -17.47176516 58.35767509 -17.51518631 49.85564232 C-17.53603009 45.90745982 -17.56428811 41.95962492 -17.60969543 38.01164246 C-17.65326914 34.19907354 -17.67709886 30.38683823 -17.68744659 26.57403946 C-17.69481743 25.12199784 -17.70921119 23.66997376 -17.73085785 22.2180748 C-17.76004738 20.17849022 -17.76388749 18.14027066 -17.76203918 16.10050964 C-17.77092163 14.9413504 -17.77980408 13.78219116 -17.78895569 12.58790588 C-17.05274599 7.64868709 -14.88188866 4.66779665 -11.07718372 1.50831127 C-7.37075961 -0.02759359 -3.94460774 -0.04446037 0 0 Z " fill="#99DDFE" transform="translate(17.307937622070313,14.639236450195313)"/>
<path d="M0 0 C1.52239724 -0.00461116 3.04479004 -0.01096553 4.56717354 -0.01890898 C8.74321546 -0.0355962 12.9188914 -0.02735877 17.09493458 -0.0149641 C21.6015076 -0.00591335 26.10801772 -0.01988352 30.61457825 -0.03088379 C39.44028691 -0.04867375 48.26585953 -0.04482677 57.09157353 -0.03323323 C64.26478619 -0.02420049 71.43796073 -0.02297422 78.61117744 -0.02732849 C79.63202753 -0.02794142 80.65287761 -0.02855436 81.70466255 -0.02918586 C83.77849897 -0.03046476 85.85233539 -0.03176162 87.92617179 -0.03307623 C107.37464797 -0.04448357 126.82304876 -0.03136618 146.27151258 -0.00987476 C162.95790672 0.00799367 179.64418954 0.0048945 196.33058167 -0.0135498 C215.7078092 -0.0349584 235.08497062 -0.04338209 254.46220833 -0.03110075 C256.52873074 -0.02982656 258.59525316 -0.02856907 260.66177559 -0.02732849 C262.18692471 -0.02640284 262.18692471 -0.02640284 263.74288492 -0.02545848 C270.90667451 -0.02200536 278.07042215 -0.0278332 285.23420525 -0.0372467 C293.96572984 -0.04846804 302.6971106 -0.04542387 311.42861872 -0.02412373 C315.88330011 -0.01361475 320.33774175 -0.00948885 324.79242134 -0.02272034 C328.87167736 -0.0346534 332.95047175 -0.02806681 337.02968598 -0.00681013 C338.50403269 -0.00234789 339.97841853 -0.00460191 341.45274001 -0.01431328 C349.43740395 -0.06286712 355.42683951 0.06083889 362.2033844 4.50793457 C364.94797529 7.46803606 366.09103061 10.80534247 366.35572815 14.81652832 C366.01815186 19.9494191 364.7163987 23.62512929 361.2033844 27.50793457 C354.40807632 31.59983035 347.11242401 30.92991479 339.40003967 30.89561462 C337.87693181 30.89978946 336.35382705 30.9052678 334.83072805 30.91193444 C330.65281493 30.92638795 326.47509909 30.92214465 322.29717517 30.91476762 C317.78858256 30.91003808 313.28003276 30.92254384 308.77145386 30.93278503 C299.94209418 30.94998195 291.11280564 30.95081128 282.28343356 30.94557213 C275.10783264 30.94153124 267.93225275 30.94297302 260.75665283 30.94832039 C259.73551402 30.94906881 258.71437522 30.94981723 257.66229281 30.95058833 C255.58789066 30.9521198 253.51348852 30.95365815 251.43908638 30.9552033 C231.98588711 30.96893131 212.53272806 30.9634883 193.0795297 30.95201809 C175.27908311 30.94208305 157.47874042 30.95503054 139.67830986 30.97895228 C121.40235307 31.00332815 103.1264447 31.01295502 84.85047197 31.00629956 C74.58922841 31.00280427 64.32806479 31.0050599 54.0668335 31.02255058 C45.33272557 31.03725355 36.5987539 31.03793285 27.8646487 31.02047967 C23.40806108 31.01195201 18.95171706 31.00986314 14.49514198 31.02513123 C10.41532936 31.03893562 6.33597003 31.03427028 2.25618392 31.01489199 C0.78050583 31.0111186 -0.6952082 31.01409243 -2.17085439 31.02450364 C-15.89862447 31.1144693 -15.89862447 31.1144693 -21.7966156 26.50793457 C-24.63557274 23.05707188 -25.68199084 19.32463596 -26.2966156 14.94543457 C-25.46678257 9.24033251 -23.68924498 5.97593123 -19.12399197 2.43494415 C-13.2610067 -0.81000384 -6.50826235 -0.04279952 0 0 Z " fill="#99DDFE" transform="translate(85.79661560058594,396.4920654296875)"/>
<path d="M0 0 C0.9640548 -0.00623996 1.92810961 -0.01247993 2.9213782 -0.01890898 C6.14262496 -0.03482757 9.36311384 -0.02223876 12.58436584 -0.00964355 C14.89751628 -0.01506519 17.21066326 -0.02218808 19.52380371 -0.03088379 C25.80067182 -0.04911593 32.07727688 -0.04204958 38.35414958 -0.02936745 C44.92475641 -0.01923812 51.49534077 -0.02863306 58.06594849 -0.03491211 C69.80789827 -0.04345478 81.54973744 -0.0302258 93.29166806 -0.00987476 C103.9290068 0.00799139 114.56617089 0.00489475 125.20350647 -0.0135498 C137.5666313 -0.03497686 149.92964483 -0.04291247 162.2927857 -0.03110075 C168.83338556 -0.0248677 175.37386521 -0.02402506 181.91445732 -0.0372467 C188.06476996 -0.0488109 194.21475319 -0.0407685 200.36503029 -0.01766968 C202.62086312 -0.01238548 204.87672373 -0.01389137 207.13254547 -0.02272034 C210.21479445 -0.03367054 213.29599164 -0.01991757 216.37817383 0 C217.26836006 -0.00892289 218.15854628 -0.01784577 219.07570785 -0.02703905 C224.94183467 0.04635669 229.32520056 1.25463969 234.25257874 4.50793457 C236.99716963 7.46803606 238.14022494 10.80534247 238.40492249 14.81652832 C238.06734619 19.9494191 236.76559304 23.62512929 233.25257874 27.50793457 C227.57439463 30.572059 222.87760689 30.93854284 216.49842834 30.89561462 C215.05128779 30.90369293 215.05128779 30.90369293 213.57491207 30.91193444 C210.35145137 30.92620912 207.1284016 30.91911139 203.90492249 30.9119873 C201.59015066 30.91769106 199.27538164 30.92465534 196.96061707 30.93278503 C190.6797296 30.95072948 184.39898173 30.94954575 178.11807632 30.94384265 C172.87433204 30.9407531 167.63061466 30.94684056 162.3868742 30.9528814 C149.31047752 30.96773184 136.23415928 30.96410949 123.15776289 30.95201809 C111.80765371 30.94208344 100.4577075 30.9550317 89.10762346 30.97895228 C77.44449082 31.00334691 65.78144086 31.01255075 54.11828327 31.00629956 C47.57379438 31.00292672 41.02944018 31.00536712 34.48497009 31.02255058 C28.33221188 31.0380006 22.17976532 31.03408541 16.0270195 31.01524544 C13.76914912 31.01155442 11.51125575 31.01468288 9.25340652 31.02513123 C6.17082019 31.03830702 3.08927077 31.02682317 0.00672913 31.00914001 C-0.88636994 31.01874502 -1.77946901 31.02835003 -2.69963169 31.0382461 C-8.53730125 30.96936013 -11.94091397 29.86547317 -16.74742126 26.50793457 C-19.5863784 23.05707188 -20.63279651 19.32463596 -21.24742126 14.94543457 C-20.64555731 10.8076199 -19.62224594 7.59891148 -16.74742126 4.50793457 C-11.0387009 0.54764764 -6.85797571 -0.0685699 0 0 Z " fill="#80AAFE" transform="translate(213.74742126464844,336.4920654296875)"/>
<path d="M0 0 C23.8524217 -0.09262383 47.70480003 -0.1639928 71.55736542 -0.20724869 C82.63270696 -0.22786762 93.70793466 -0.25597556 104.78320312 -0.30175781 C114.43721229 -0.34164591 124.091139 -0.36743767 133.74522829 -0.37635398 C138.85629262 -0.38156535 143.96712106 -0.39380026 149.07810974 -0.42292023 C153.89125179 -0.45012038 158.70406134 -0.45843566 163.51727295 -0.45243073 C165.28129383 -0.4535289 167.04532611 -0.46145535 168.8092804 -0.4768219 C185.37794736 -0.61404838 185.37794736 -0.61404838 192 4 C194.74459089 6.96010149 195.88764621 10.2974079 196.15234375 14.30859375 C195.81476746 19.44148453 194.51301431 23.11719472 191 27 C185.96710075 29.61505112 181.85619641 30.43216647 176.17286682 30.36076355 C175.41551221 30.36332682 174.6581576 30.3658901 173.87785286 30.36853105 C171.35657989 30.37344689 168.83591446 30.35701292 166.31469727 30.34057617 C164.50088007 30.33972942 162.68706184 30.34020598 160.87324524 30.34190369 C155.96050276 30.34276319 151.04798075 30.32514458 146.13528943 30.30418181 C140.99701895 30.28540764 135.85874322 30.28366398 130.72044373 30.28010559 C120.99540357 30.27078732 111.27046478 30.24617643 101.54546922 30.21605712 C90.47177129 30.18250638 79.39806848 30.1660254 68.32433236 30.15097082 C45.54949683 30.11962672 22.77475838 30.06626495 0 30 C0 20.1 0 10.2 0 0 Z " fill="#80AAFE" transform="translate(256,397)"/>
<path d="M0 0 C1.33779663 -0.00542698 2.67558727 -0.01255287 4.0133667 -0.02124023 C7.63129282 -0.03941031 11.24876051 -0.03243213 14.86669421 -0.01972389 C18.66261151 -0.00956113 22.45849087 -0.01899883 26.25440979 -0.02526855 C32.62882495 -0.03253636 39.00305446 -0.02298109 45.37744141 -0.00390625 C52.73309391 0.01785163 60.08830268 0.01081577 67.44394439 -0.01121187 C73.77285907 -0.02940189 80.10164066 -0.03190639 86.43057305 -0.0214572 C90.20458209 -0.01524077 93.97838303 -0.01433508 97.75237846 -0.02760315 C101.30256136 -0.03921345 104.85217604 -0.03104279 108.40229797 -0.00802612 C110.31629163 -0.00026958 112.23033371 -0.01205135 114.14430237 -0.02453613 C121.13843258 0.04384761 125.85327173 0.65156469 131.75610352 4.51757812 C134.51326508 7.67488223 135.6504416 10.79115248 136.25610352 14.95507812 C135.6413877 19.33492834 134.70720862 23.14190366 131.75610352 26.51757812 C124.70333212 31.01649535 118.62719835 31.09434023 110.39868164 31.05102539 C109.06073561 31.05809384 107.72279757 31.06684273 106.38487244 31.07713318 C102.77115553 31.09953191 99.15787855 31.09671034 95.54411888 31.08781171 C92.51979716 31.08268265 89.49555672 31.09000974 86.47124338 31.09728378 C79.3338646 31.11425201 72.19669979 31.11074753 65.05932617 31.09399414 C57.71096924 31.07706795 50.36320615 31.09292066 43.01491404 31.12521702 C36.69021939 31.15195516 30.36570912 31.15917782 24.04096365 31.15070194 C20.2702627 31.14578591 16.49991904 31.14791617 12.72926331 31.16848946 C9.183082 31.18691412 5.6377519 31.18080693 2.09161568 31.15629005 C0.18000085 31.14893733 -1.73165978 31.16608417 -3.64320374 31.18411255 C-10.62765598 31.1074046 -16.01404133 30.48318601 -21.24389648 25.51757812 C-24.02926871 20.81726249 -24.92180334 16.940833 -24.24389648 11.51757812 C-22.52756898 6.66486644 -20.13263746 3.91968825 -15.56027031 1.38360596 C-10.59518197 -0.47270266 -5.23214485 -0.03407362 0 0 Z " fill="#80AAFE" transform="translate(316.243896484375,276.482421875)"/>
<path d="M0 0 C1.33779663 -0.00542698 2.67558727 -0.01255287 4.0133667 -0.02124023 C7.63129282 -0.03941031 11.24876051 -0.03243213 14.86669421 -0.01972389 C18.66261151 -0.00956113 22.45849087 -0.01899883 26.25440979 -0.02526855 C32.62882495 -0.03253636 39.00305446 -0.02298109 45.37744141 -0.00390625 C52.73309391 0.01785163 60.08830268 0.01081577 67.44394439 -0.01121187 C73.77285907 -0.02940189 80.10164066 -0.03190639 86.43057305 -0.0214572 C90.20458209 -0.01524077 93.97838303 -0.01433508 97.75237846 -0.02760315 C101.30256136 -0.03921345 104.85217604 -0.03104279 108.40229797 -0.00802612 C110.31629163 -0.00026958 112.23033371 -0.01205135 114.14430237 -0.02453613 C121.13843258 0.04384761 125.85327173 0.65156469 131.75610352 4.51757812 C134.51326508 7.67488223 135.6504416 10.79115248 136.25610352 14.95507812 C135.6413877 19.33492834 134.70720862 23.14190366 131.75610352 26.51757812 C124.70333212 31.01649535 118.62719835 31.09434023 110.39868164 31.05102539 C109.06073561 31.05809384 107.72279757 31.06684273 106.38487244 31.07713318 C102.77115553 31.09953191 99.15787855 31.09671034 95.54411888 31.08781171 C92.51979716 31.08268265 89.49555672 31.09000974 86.47124338 31.09728378 C79.3338646 31.11425201 72.19669979 31.11074753 65.05932617 31.09399414 C57.71096924 31.07706795 50.36320615 31.09292066 43.01491404 31.12521702 C36.69021939 31.15195516 30.36570912 31.15917782 24.04096365 31.15070194 C20.2702627 31.14578591 16.49991904 31.14791617 12.72926331 31.16848946 C9.183082 31.18691412 5.6377519 31.18080693 2.09161568 31.15629005 C0.18000085 31.14893733 -1.73165978 31.16608417 -3.64320374 31.18411255 C-10.62765598 31.1074046 -16.01404133 30.48318601 -21.24389648 25.51757812 C-24.02926871 20.81726249 -24.92180334 16.940833 -24.24389648 11.51757812 C-22.52756898 6.66486644 -20.13263746 3.91968825 -15.56027031 1.38360596 C-10.59518197 -0.47270266 -5.23214485 -0.03407362 0 0 Z " fill="#80AAFE" transform="translate(316.243896484375,211.482421875)"/>
<path d="M0 0 C1.33779663 -0.00542698 2.67558727 -0.01255287 4.0133667 -0.02124023 C7.63129282 -0.03941031 11.24876051 -0.03243213 14.86669421 -0.01972389 C18.66261151 -0.00956113 22.45849087 -0.01899883 26.25440979 -0.02526855 C32.62882495 -0.03253636 39.00305446 -0.02298109 45.37744141 -0.00390625 C52.73309391 0.01785163 60.08830268 0.01081577 67.44394439 -0.01121187 C73.77285907 -0.02940189 80.10164066 -0.03190639 86.43057305 -0.0214572 C90.20458209 -0.01524077 93.97838303 -0.01433508 97.75237846 -0.02760315 C101.30256136 -0.03921345 104.85217604 -0.03104279 108.40229797 -0.00802612 C110.31629163 -0.00026958 112.23033371 -0.01205135 114.14430237 -0.02453613 C121.13843258 0.04384761 125.85327173 0.65156469 131.75610352 4.51757812 C134.51326508 7.67488223 135.6504416 10.79115248 136.25610352 14.95507812 C135.6413877 19.33492834 134.70720862 23.14190366 131.75610352 26.51757812 C124.70333212 31.01649535 118.62719835 31.09434023 110.39868164 31.05102539 C109.06073561 31.05809384 107.72279757 31.06684273 106.38487244 31.07713318 C102.77115553 31.09953191 99.15787855 31.09671034 95.54411888 31.08781171 C92.51979716 31.08268265 89.49555672 31.09000974 86.47124338 31.09728378 C79.3338646 31.11425201 72.19669979 31.11074753 65.05932617 31.09399414 C57.71096924 31.07706795 50.36320615 31.09292066 43.01491404 31.12521702 C36.69021939 31.15195516 30.36570912 31.15917782 24.04096365 31.15070194 C20.2702627 31.14578591 16.49991904 31.14791617 12.72926331 31.16848946 C9.183082 31.18691412 5.6377519 31.18080693 2.09161568 31.15629005 C0.18000085 31.14893733 -1.73165978 31.16608417 -3.64320374 31.18411255 C-10.62765598 31.1074046 -16.01404133 30.48318601 -21.24389648 25.51757812 C-24.02926871 20.81726249 -24.92180334 16.940833 -24.24389648 11.51757812 C-22.52756898 6.66486644 -20.13263746 3.91968825 -15.56027031 1.38360596 C-10.59518197 -0.47270266 -5.23214485 -0.03407362 0 0 Z " fill="#80AAFE" transform="translate(316.243896484375,146.482421875)"/>
<path d="M0 0 C1.15268623 -0.01051392 1.15268623 -0.01051392 2.32865906 -0.02124023 C4.84977169 -0.03873616 7.36974659 -0.02722701 9.89086914 -0.01367188 C11.65532139 -0.0163695 13.41977218 -0.02025417 15.18421936 -0.02526855 C18.87523608 -0.03115245 22.56586451 -0.02263767 26.25683594 -0.00390625 C30.97222077 0.01886602 35.68669393 0.00576437 40.40204525 -0.01819611 C44.043938 -0.03269857 47.68561713 -0.02802751 51.32751656 -0.01768494 C53.0653348 -0.01502905 54.80317285 -0.0182471 56.54096794 -0.02760315 C58.97704782 -0.03784075 61.41168309 -0.02216852 63.84765625 0 C64.91010559 -0.01214539 64.91010559 -0.01214539 65.99401855 -0.02453613 C71.34204783 0.0649606 75.62058346 1.4990619 79.98852539 4.51757812 C82.76522751 7.65030792 83.88466507 10.80353839 84.48852539 14.95507812 C83.87380957 19.33492834 82.93963049 23.14190366 79.98852539 26.51757812 C74.76690116 29.86414168 70.05613793 31.10612849 63.84765625 31.03515625 C63.07744644 31.04216553 62.30723663 31.0491748 61.51368713 31.05639648 C58.99320342 31.07385775 56.47386224 31.06239811 53.95336914 31.04882812 C52.18795051 31.05152619 50.42253333 31.05541123 48.65711975 31.0604248 C44.96788298 31.06630352 41.27903511 31.05780867 37.58984375 31.0390625 C32.87326883 31.01625695 28.15760369 31.02941624 23.44106197 31.05335236 C19.79921167 31.06784022 16.15757538 31.06319099 12.51571846 31.05284119 C10.7770737 31.05018302 9.03840918 31.05341148 7.29978752 31.0627594 C4.86600493 31.07297661 2.43367503 31.05735436 0 31.03515625 C-0.71032379 31.04325317 -1.42064758 31.0513501 -2.15249634 31.05969238 C-7.58162748 30.96845675 -10.61876461 29.47668611 -15.01147461 26.51757812 C-17.85043175 23.06671544 -18.89684985 19.33427951 -19.51147461 14.95507812 C-18.90961066 10.81726346 -17.88629929 7.60855503 -15.01147461 4.51757812 C-9.92653296 1.11460474 -6.162302 -0.07024359 0 0 Z " fill="#99DDFE" transform="translate(79.011474609375,336.482421875)"/>
<path d="M0 0 C9.9 0 19.8 0 30 0 C30.20054405 16.89917833 30.20054405 16.89917833 30.24414062 24.13671875 C30.27395978 29.06358979 30.30912613 33.98999351 30.37719727 38.91650391 C30.4317693 42.89119567 30.461473 46.86538591 30.47438622 50.84042358 C30.48358126 52.35224292 30.50153712 53.86403671 30.52865028 55.37564087 C30.77400251 69.62925089 30.77400251 69.62925089 26.40617371 75.61279297 C22.96920432 79.00340401 19.19419456 79.82629897 14.5625 80.5 C9.93420671 79.85041498 6.34755872 78.31117221 3 75 C0.53566182 70.08798592 -0.37172483 66.53874529 -0.34057617 60.96313477 C-0.34101425 60.29886978 -0.34145233 59.6346048 -0.34190369 58.95021057 C-0.33983328 56.78029766 -0.31658729 54.61118219 -0.29296875 52.44140625 C-0.28736653 50.9268384 -0.28309939 49.41226507 -0.28010559 47.89768982 C-0.26870602 43.93068163 -0.23928171 39.96400819 -0.20599365 35.99713135 C-0.16976076 31.22718472 -0.15610829 26.45712553 -0.13863373 21.68708038 C-0.10964071 14.45782148 -0.05212042 7.22929564 0 0 Z " fill="#C76E59" transform="translate(125,147)"/>
<path d="M0 0 C1.71643456 0.00848969 1.71643456 0.00848969 3.46754456 0.01715088 C7.10509926 0.03945544 10.74165165 0.08964332 14.37890625 0.140625 C16.85219927 0.16069754 19.3255078 0.17894698 21.79882812 0.1953125 C27.84704649 0.23589095 33.89311081 0.31419866 39.94140625 0.390625 C39.94140625 10.290625 39.94140625 20.190625 39.94140625 30.390625 C32.66334526 30.48259067 25.38731052 30.56219316 18.10913086 30.61035156 C15.6347774 30.63043271 13.1604712 30.65770323 10.6862793 30.69238281 C7.12406737 30.74105278 3.56248444 30.76362954 0 30.78125 C-1.10130753 30.80189514 -2.20261505 30.82254028 -3.33729553 30.84381104 C-9.82045209 30.84569342 -13.79179972 30.26882661 -19.05859375 26.390625 C-21.89755089 22.93976231 -22.94396899 19.20732639 -23.55859375 14.828125 C-22.9567298 10.69031033 -21.93341843 7.48160191 -19.05859375 4.390625 C-12.82167538 -0.17194208 -7.5702879 -0.14191283 0 0 Z " fill="#99DDFE" transform="translate(216.05859375,336.609375)"/>
<path d="M0 0 C4.14374812 2.29314216 6.33723536 4.938401 7.8125 9.4375 C8.65187362 15.31311535 7.76319986 18.86346837 4.36328125 23.73828125 C1.00176954 27.42154974 -2.85560306 28.24376954 -7.625 28.9375 C-12.3767712 28.27058474 -15.61397476 26.63274666 -19.1875 23.4375 C-21.97287223 18.73718437 -22.86540686 14.86075487 -22.1875 9.4375 C-20.44294414 4.504976 -17.73316107 1.40475576 -13.0390625 -0.90234375 C-8.34602817 -2.57559861 -4.45447532 -1.90552555 0 0 Z " fill="#55B327" transform="translate(444.1875,66.5625)"/>
<path d="M0 0 C4.36492736 2.40706674 5.93942071 4.83284673 7.8125 9.4375 C8.54520346 14.47483626 7.62027557 18.24512573 5.20703125 22.63671875 C1.89427009 26.91454198 -2.56531496 28.20982491 -7.75 28.9375 C-11.90567414 28.33303831 -15.0494453 27.21048398 -18.1875 24.4375 C-21.62339266 19.77883377 -23.03044428 15.23274192 -22.1875 9.4375 C-20.42898855 4.50534364 -17.74068059 1.40845153 -13.0390625 -0.90234375 C-8.34602817 -2.57559861 -4.45447532 -1.90552555 0 0 Z " fill="#E5316C" transform="translate(384.1875,66.5625)"/>
</svg>
